# xmcd
# 
# Track frame offsets:
#     150
#     19196
#     38186
#     61482
#     76253
#     98693
#     115118
#     132654
#     149466
#     167611
#     182797
#     197498
# 
# Disc length: 2801
# 
# Revision: 1
# Processed by: cddbd v1.5.2PL0 Copyright (c) Steve Scherf et al.
# Submitted via: BonkEnc v1.0.15
# 
DISCID=a10aef0c
DTITLE=Jesus adrian romero - El aire de tu casa
DYEAR=2007
DGENRE=Acid Jazz
TTITLE0=Aire de tu Casa
TTITLE1=Mi Universo
TTITLE2=Espérame
TTITLE3=Aquí estoy
TTITLE4=No es como yo
TTITLE5=Mi corazón te canta
TTITLE6=Te veo
TTITLE7=Mi erencia
TTITLE8=Me dices que me amas
TTITLE9=Es por tu gracia
TTITLE10=De ti dependo
TTITLE11=Pegao a ti
EXTD=
EXTT0=
EXTT1=
EXTT2=
EXTT3=
EXTT4=
EXTT5=
EXTT6=
EXTT7=
EXTT8=
EXTT9=
EXTT10=
EXTT11=
PLAYORDER=
